<svg width="148" height="82" viewBox="0 0 148 82" fill="none" xmlns="http://www.w3.org/2000/svg">
<path d="M1.82553 55.6935C1.82553 55.6935 9.67395 49.8515 19.0197 46.4205C23.0474 42.2697 42.7104 21.7974 48.3249 15.9498C49.0205 15.2244 50.2344 15.4762 50.5886 16.416L60.05 41.5909L68.2509 42.9745C68.2509 42.9745 66.3899 31.9804 63.2684 22.0156C61.3609 15.9255 58.6907 7.81234 56.9024 2.42156C56.0484 -0.151688 52.7349 -0.843483 50.9206 1.17223L1.82553 55.6935Z" fill="white"/>
<path d="M7.62939e-06 59.4899V69.8575C30.5751 51.6397 66.5522 45.7268 100.217 58.1437V56.0086C86.1536 47.8339 66.1699 42.6967 47.1054 43.1479C27.5096 43.6104 8.43394 51.0206 7.62939e-06 59.4899Z" fill="white"/>
<path d="M83.31 46.8773L78.1206 37.0187C77.5388 35.913 76.0601 35.6743 75.1595 36.5395L70.0037 41.4921L70.4419 43.2635C70.44 43.2617 78.3816 44.9604 83.31 46.8773Z" fill="white"/>
<path d="M24.0991 44.3395C31.9438 40.8991 49.44 39.8941 57.2064 41.4455C54.8327 35.2846 48.9925 19.295 48.9925 19.295C41.0713 25.6834 24.0991 44.3395 24.0991 44.3395Z" fill="white"/>
<path d="M67.3372 30.6677L73.2333 23.7311C70.7514 21.3946 68.0495 20.7737 65.6571 23.5483C66.4794 27.3094 67.3372 30.6677 67.3372 30.6677Z" fill="white"/>
<path d="M63.522 18.2545L65.2021 16.7572C65.2021 16.7572 66.3153 18.29 66.5521 21.266L65.3103 22.726L63.522 18.2545Z" fill="white"/>
<path d="M69.3454 12.998C69.3454 12.998 68.8345 15.1331 68.359 16.7591C67.8835 18.3832 67.7567 19.7892 67.6113 20.2273C67.4658 20.6655 67.4099 21.1037 67.4099 21.1037C67.4099 21.1037 68.0849 20.4474 69.144 20.5388C69.09 19.7444 69.3995 19.2969 69.8004 18.786C70.2013 18.275 71.1877 15.4277 71.4432 14.5867C71.6987 13.7476 71.6073 13.5089 70.8409 13.3635C70.0745 13.218 69.3454 12.998 69.3454 12.998Z" fill="white"/>
<path d="M72.452 16.6248L69.7202 20.604C69.7202 20.604 70.8129 20.604 71.5234 20.9863C72.9461 19.625 73.9456 18.2955 74.2644 17.9245C74.5833 17.5534 74.3782 17.1208 73.8318 16.884C73.2874 16.6453 72.452 16.6248 72.452 16.6248Z" fill="white"/>
<path d="M72.5564 21.7116L73.7927 23.0784C73.7927 23.0784 75.6275 20.233 76.0098 19.7481C76.392 19.2633 76.8246 18.9128 76.8246 18.9128L76.2466 18.2844L72.5564 21.7116Z" fill="white"/>
<path d="M67.6616 33.1458L69.3734 39.4167L75.5306 33.7164C76.5282 32.7934 78.1318 33.0787 78.749 34.2907L85.6278 47.8096L94.9735 51.6061C94.9735 51.6061 90.9029 41.6767 87.8728 34.7401C85.928 30.2873 83.3808 24.4042 81.8089 20.7625C81.147 19.2316 79.0995 18.9594 78.0535 20.2572L67.6616 33.1458Z" fill="white"/>
<path d="M28.041 81.3402L33.3013 68.7705H35.3244L40.4653 81.3402H36.4917L34.2541 74.3179L31.8244 81.3402H28.041Z" fill="white"/>
<path d="M65.9909 81.3402L71.253 68.7705H73.2762L78.4171 81.3402H74.4416L72.204 74.3179L69.7762 81.3402H65.9909Z" fill="white"/>
<path d="M88.876 81.3402L94.1363 68.7705H96.1595L101.302 81.3402H97.3268L95.0891 74.3179L92.6613 81.3402H88.876Z" fill="white"/>
<path d="M123.865 81.3402L129.125 68.7705H131.148L136.289 81.3402H132.314L130.076 74.3179L127.648 81.3402H123.865Z" fill="white"/>
<path d="M44.2637 81.3402V72.8354H44.4837L50.8926 81.3402H54.9035V68.7705H51.797V76.8799H51.5415L45.3582 68.7705H41.3231V81.3402H44.2637Z" fill="white"/>
<path d="M67.9712 68.7705V71.6215H63.5966V81.3402H60.367V71.6215H55.9571V68.7705H67.9712Z" fill="white"/>
<path d="M88.9917 70.2939C87.4906 68.8786 84.6283 68.7705 83.4685 68.7705C82.3087 68.7705 79.1648 68.7705 79.1648 68.7705V81.3402H82.249V78.2635C86.217 78.2635 87.6099 78.0901 88.9917 76.9247C90.3715 75.7574 90.4909 71.7111 88.9917 70.2939ZM82.2415 75.5318V71.45C82.2415 71.45 86.7167 71.0211 86.7167 73.4899C86.7167 75.9606 82.2415 75.5318 82.2415 75.5318Z" fill="white"/>
<path d="M110.225 72.4364C110.225 72.4364 108.416 70.568 106.143 71.6626C103.87 72.7571 103.381 76.0781 105.06 77.7563C106.738 79.4345 109.309 79.125 110.284 77.7563C110.999 78.5414 112.332 79.9697 112.332 79.9697C112.332 79.9697 109.66 82.6362 105.839 81.4931C102.018 80.3501 100.894 77.279 101.036 74.8344C101.179 72.3879 102.018 70.4953 105.017 69.0315C108.017 67.5677 111.325 69.1919 112.33 70.3163C111.338 71.353 110.225 72.4364 110.225 72.4364Z" fill="white"/>
<path d="M121.596 72.4364C121.596 72.4364 119.787 70.568 117.514 71.6626C115.241 72.7571 114.752 76.0781 116.43 77.7563C118.109 79.4345 120.68 79.125 121.655 77.7563C122.369 78.5414 123.703 79.9697 123.703 79.9697C123.703 79.9697 121.031 82.6362 117.21 81.4931C113.389 80.3501 112.265 77.279 112.406 74.8344C112.55 72.3879 113.389 70.4953 116.387 69.0315C119.388 67.5677 122.696 69.1919 123.701 70.3163C122.709 71.353 121.596 72.4364 121.596 72.4364Z" fill="white"/>
<path d="M133.041 68.7705L138.754 76.5312V81.3402H141.92V76.4604L147.61 68.7705H143.683L140.421 73.2457L137.136 68.7705H133.041Z" fill="white"/>
</svg>
